# xmcd
#
# Track frame offsets: 
#        150
#        29400
#        51078
#        75193
#        90103
#        108938
#        132405
#        159618
#
# Disc length: 2530 seconds
#
# Revision: 2
# Processed by: cddbd v1.5.2PL0 Copyright (c) Steve Scherf et al.
# Submitted via: ExactAudioCopy v0.99pb4
#
DISCID=5209e008
DTITLE=The Gap Band - IV
DYEAR=1982
DGENRE=Funk
TTITLE0=Early In The Morning
TTITLE1=Seasons No Reason To Change
TTITLE2=Lonely Like Me
TTITLE3=Outstanding
TTITLE4=Stay With Me
TTITLE5=You Dropped A Bomb On Me
TTITLE6=I Can't Get Over You
TTITLE7=Talkin' Back
EXTD=
EXTT0=
EXTT1=
EXTT2=
EXTT3=
EXTT4=
EXTT5=
EXTT6=
EXTT7=
PLAYORDER=
